<svg width="72" height="24" viewBox="0 0 72 24" fill="none" xmlns="http://www.w3.org/2000/svg">
<g clip-path="url(#clip0_761_356)">
<path fill-rule="evenodd" clip-rule="evenodd" d="M13.5237 4.42971L26.9873 0.453125V1.3589L13.5258 5.33548V4.42971H13.5237ZM13.5237 19.5893V18.6835L27.0795 14.676L27.0946 15.5995L13.5237 19.5915V19.5893ZM13.5237 17.5524L16.7658 16.5981C17.5999 16.7571 18.5112 16.7085 19.4053 16.4545C20.3166 16.1849 21.1036 15.7232 21.7211 15.1333L27.0774 13.5582L27.0624 12.6524L22.6774 13.9404C22.8168 13.7018 22.939 13.4477 23.0334 13.176C22.2915 14.4176 20.9492 15.4669 19.266 15.9596C17.5977 16.4522 15.9167 16.2932 14.6494 15.6569C14.866 15.8315 15.0976 15.9751 15.3441 16.1032L13.5215 16.6444V17.5502L13.5237 17.5524ZM13.5237 15.5155L15.0375 15.0693C16.2104 15.4029 17.5999 15.3874 18.9893 14.9743C20.3938 14.5612 21.5667 13.8122 22.3858 12.9065L27.0645 11.5235V10.6177L23.1899 11.7621C23.4065 11.349 23.5609 10.9358 23.623 10.505L27.0495 9.4866V8.58082L23.5137 9.63019L23.4515 9.64566C23.1899 11.603 21.3673 13.5118 18.7899 14.2585C16.8301 14.8461 14.8831 14.6252 13.5258 13.7968V14.3844C13.603 14.433 13.6802 14.4949 13.7724 14.5435L13.5258 14.6075V15.5133L13.5237 15.5155ZM13.5237 12.8755V12.0957C14.836 12.6679 16.5192 12.7805 18.2324 12.2702C20.7498 11.5235 22.5402 9.69426 22.864 7.7855L23.1427 7.6905L27.0324 6.54613V7.46958L23.1256 8.61396C22.8468 10.5536 21.0264 12.4315 18.494 13.1782C16.6714 13.7194 14.851 13.5604 13.5237 12.8755ZM13.5237 10.7127C14.7888 11.3004 16.3326 11.4285 17.8765 10.9822C20.0079 10.346 21.5667 8.73988 22.0921 6.87751L27.0174 5.43048V4.5247L22.2615 5.92534L21.6439 6.09987L21.3823 6.1794C21.1207 7.99317 19.6991 9.64787 17.6621 10.2355C16.1804 10.6818 14.6816 10.4586 13.5237 9.77379V10.7127ZM13.5237 7.51598C14.42 8.40629 15.7923 8.77302 17.1367 8.37536C18.5412 7.96224 19.5297 6.83333 19.7763 5.52769L27.0024 3.3958V2.49002L19.8385 4.60644L18.8821 4.89364C18.8971 6.03801 18.0952 7.13599 16.8901 7.50272C15.6701 7.85178 14.435 7.35912 13.8496 6.37381L13.5258 6.46881V7.51819L13.5237 7.51598ZM0 8.42175L13.5237 4.42971V5.33548L0 9.32974V8.42396V8.42175ZM13.5237 6.4666L12.8911 6.65659L0.0150096 10.4586V11.3644L13.4165 7.40331C13.4465 7.45191 13.4787 7.48284 13.5237 7.51377V6.46439V6.4666ZM13.5237 9.77379C13.0906 9.51973 12.7217 9.20161 12.413 8.83488L12.2586 8.86581L11.5167 9.08894L0.0300193 12.4933V13.3991L12.1642 9.80472C12.5652 10.1715 13.0134 10.4719 13.5237 10.7105V9.77158V9.77379ZM13.5237 12.0957V12.8755C12.9984 12.606 12.5352 12.2547 12.1814 11.8416L0.0471732 15.4205L0.0321635 14.5148L11.6882 11.0794L11.982 10.9999C12.383 11.4616 12.9083 11.8262 13.5258 12.0979L13.5237 12.0957ZM13.5237 13.799V14.3866C13.2299 14.1966 12.9683 13.958 12.7518 13.7194L0.0621828 17.4574L0.0471732 16.5517L12.413 12.9087L12.4602 12.8932C12.7539 13.2423 13.1077 13.5449 13.5258 13.799H13.5237ZM13.5237 14.6098L0.0621828 18.5863L0.0771925 19.4921L13.5237 15.5155V14.6098ZM13.5237 16.6467L0.0771925 20.6232L0.0922021 21.529L13.5237 17.5524V16.6467ZM13.5237 18.6813V19.5871L0.107212 23.5482L0.0922021 22.6425L13.5237 18.6813Z" fill="#999999"/>
<path fill-rule="evenodd" clip-rule="evenodd" d="M48.9367 13.5873V10.6856C49.722 10.5073 50.3369 10.1124 50.7389 9.34174C50.9678 8.90841 51.045 8.51348 50.9678 8.01981C50.872 7.38902 50.5472 6.93374 50.0468 6.61835C49.722 6.40168 49.3946 6.28375 49.0299 6.22341H48.9341V5.23608C49.163 5.25528 49.3946 5.27447 49.6421 5.31561C50.9651 5.55148 51.809 6.00675 52.2482 6.61835C52.4026 6.85421 52.517 7.11201 52.5543 7.40821C52.9962 9.83815 51.6333 11.3576 49.3147 11.5742L54.1248 17.7944L54.7956 18.4664H52.5729L48.9314 13.59L48.9367 13.5873ZM62.8693 5.21414H60.7983L64.9775 11.5523L59.9571 18.4636H62.0281L62.2384 17.7917L65.8214 12.8358L69.0982 17.7917L69.2899 18.4636H71.3795L66.7983 11.5139L71.3795 5.21414H69.2899L69.0982 5.88607L65.9358 10.2303L63.0796 5.88607L62.8693 5.21414ZM56.257 5.21414H58.328L58.0592 5.88607V17.7944L58.328 18.4664H56.257L56.5445 17.7944V5.88607L56.257 5.21414ZM37.6102 5.19494C41.2331 5.19494 44.2038 8.19534 44.2038 11.8704C44.2038 15.5455 41.2331 18.5459 37.6102 18.5459V17.5394C40.3307 17.5394 42.5561 14.9915 42.5561 11.8732C42.5561 8.75483 40.3334 6.20696 37.6102 6.20696V5.20042V5.19494ZM48.9367 5.23333V6.22067C47.824 6.08354 47.1932 6.14113 46.8657 6.3578V10.7213H48.6679C48.7637 10.7021 48.8409 10.7021 48.9367 10.6829V13.5845L46.9829 10.9571C46.9456 10.9379 46.9057 10.9379 46.8684 10.9187V17.7917L47.1559 18.4636H45.0849L45.3724 17.7917V5.88607L45.0849 5.21414H47.1559V5.23333H48.9394H48.9367ZM37.6102 5.19494V6.20147C34.8897 6.20147 32.6643 8.74934 32.6643 11.8677C32.6643 14.986 34.8871 17.5339 37.6102 17.5339V18.5404C33.9873 18.5404 31.0166 15.54 31.0166 11.8649C31.0166 8.18985 33.9873 5.18945 37.6102 5.18945V5.19494Z" fill="#999999"/>
</g>
<defs>
<clipPath id="clip0_761_356">
<rect width="72" height="24" fill="white"/>
</clipPath>
</defs>
</svg>
