<svg width="20" height="20" viewBox="0 0 20 20" fill="none" xmlns="http://www.w3.org/2000/svg">
<path d="M3.75211 6.65779L10.0002 12.7476L16.2482 6.65779C16.3598 6.5491 16.5094 6.48828 16.6652 6.48828C16.821 6.48828 16.9706 6.5491 17.0822 6.65779C17.1365 6.71058 17.1797 6.77373 17.2092 6.84351C17.2387 6.91329 17.2539 6.98828 17.2539 7.06404C17.2539 7.1398 17.2387 7.21479 17.2092 7.28457C17.1797 7.35435 17.1365 7.4175 17.0822 7.47029L10.4357 13.9488C10.319 14.0622 10.1628 14.1256 10.0002 14.1256C9.8375 14.1256 9.68126 14.0622 9.56461 13.9488L2.91812 7.47029C2.86349 7.41747 2.82004 7.3542 2.79036 7.28424C2.76069 7.21428 2.7454 7.13906 2.7454 7.06306C2.7454 6.98707 2.76069 6.91185 2.79036 6.84189C2.82004 6.77193 2.86349 6.70866 2.91812 6.65584C3.02972 6.54715 3.17934 6.48633 3.33512 6.48633C3.49089 6.48633 3.64051 6.54715 3.75211 6.65584L3.75211 6.65779Z" fill="#666666"/>
</svg>
