<svg width="20" height="20" viewBox="0 0 20 20" fill="none" xmlns="http://www.w3.org/2000/svg">
<path d="M9.99844 0.899902C4.97524 0.899902 0.898438 4.9767 0.898438 9.9999C0.898438 15.0231 4.97524 19.0999 9.99844 19.0999C15.0216 19.0999 19.0984 15.0231 19.0984 9.9999C19.0984 4.9767 15.0216 0.899902 9.99844 0.899902ZM9.08844 5.4499H10.9084V10.9099H9.08844V5.4499ZM9.99844 14.5499C9.37054 14.5499 8.86094 14.0403 8.86094 13.4124C8.86094 12.7845 9.37054 12.2749 9.99844 12.2749C10.6263 12.2749 11.1359 12.7845 11.1359 13.4124C11.1359 14.0403 10.6263 14.5499 9.99844 14.5499Z" fill="#FF0000"/>
</svg>
