<svg width="22" height="22" viewBox="0 0 22 22" fill="none" xmlns="http://www.w3.org/2000/svg">
<path d="M11.0022 0.991211C5.47667 0.991211 0.992188 5.47569 0.992188 11.0012C0.992188 16.5267 5.47667 21.0112 11.0022 21.0112C16.5277 21.0112 21.0122 16.5267 21.0122 11.0012C21.0122 5.47569 16.5277 0.991211 11.0022 0.991211ZM10.0012 5.99621H12.0032V12.0022H10.0012V5.99621ZM11.0022 16.0062C10.3115 16.0062 9.75094 15.4457 9.75094 14.755C9.75094 14.0643 10.3115 13.5037 11.0022 13.5037C11.6929 13.5037 12.2534 14.0643 12.2534 14.755C12.2534 15.4457 11.6929 16.0062 11.0022 16.0062Z" fill="#3182EE"/>
</svg>
