<svg width="24" height="24" viewBox="0 0 24 24" fill="none" xmlns="http://www.w3.org/2000/svg">
<path d="M16.1982 2C16.64 2 16.9979 2.35807 16.998 2.7998V5H19.1992C20.1932 5.00001 20.9988 5.80587 20.999 6.7998V19.2002C20.999 20.1943 20.1933 21 19.1992 21H4.7998C3.80579 20.9999 3.00001 20.1942 3 19.2002V6.7998C3.00011 5.80585 3.80585 5.0001 4.7998 5H7V2.7998C7.00011 2.35813 7.35813 2.00011 7.7998 2C8.24157 2 8.5995 2.35807 8.59961 2.7998V5H15.3984V2.7998C15.3985 2.35813 15.7566 2.00011 16.1982 2ZM4.59961 19.2002C4.59962 19.3106 4.68944 19.4003 4.7998 19.4004H19.1992C19.3097 19.4004 19.3994 19.3106 19.3994 19.2002V10.7998H4.59961V19.2002ZM7.60156 14C8.15385 14 8.60156 14.4477 8.60156 15C8.60156 15.5523 8.15385 16 7.60156 16C7.04928 16 6.60156 15.5523 6.60156 15C6.60156 14.4477 7.04928 14 7.60156 14ZM12 14C12.5523 14 13 14.4477 13 15C13 15.5523 12.5523 16 12 16C11.4477 16 11 15.5523 11 15C11 14.4477 11.4477 14 12 14ZM16.4023 14C16.9546 14 17.4023 14.4477 17.4023 15C17.4023 15.5523 16.9546 16 16.4023 16C15.8501 16 15.4023 15.5523 15.4023 15C15.4023 14.4477 15.8501 14 16.4023 14ZM4.7998 6.59961C4.6895 6.59971 4.59971 6.6895 4.59961 6.7998V9.2002H19.3994V6.7998C19.3992 6.68952 19.3096 6.60059 19.1992 6.60059L4.7998 6.59961Z" fill="#333333"/>
</svg>
