<svg width="20" height="20" viewBox="0 0 20 20" fill="none" xmlns="http://www.w3.org/2000/svg">
<path d="M10.0004 19.1004C15.0262 19.1004 19.1004 15.0262 19.1004 10.0004C19.1004 4.9746 15.0262 0.900391 10.0004 0.900391C4.9746 0.900391 0.900391 4.9746 0.900391 10.0004C0.900391 15.0262 4.9746 19.1004 10.0004 19.1004Z" fill="#999999"/>
<path d="M9.99883 6.5875C10.6271 6.5875 11.1363 6.07822 11.1363 5.45C11.1363 4.82178 10.6271 4.3125 9.99883 4.3125C9.3706 4.3125 8.86133 4.82178 8.86133 5.45C8.86133 6.07822 9.3706 6.5875 9.99883 6.5875Z" fill="white"/>
<path d="M10.9079 8.40723H9.08789V15.6872H10.9079V8.40723Z" fill="white"/>
</svg>
