<svg width="22" height="22" viewBox="0 0 22 22" fill="none" xmlns="http://www.w3.org/2000/svg">
<path d="M11.0017 0.991211C5.47618 0.991211 0.991699 5.47569 0.991699 11.0012C0.991699 16.5267 5.47618 21.0112 11.0017 21.0112C16.5272 21.0112 21.0117 16.5267 21.0117 11.0012C21.0117 5.47569 16.5272 0.991211 11.0017 0.991211ZM10.0007 5.99621H12.0027V12.0022H10.0007V5.99621ZM11.0017 16.0062C10.311 16.0062 9.75045 15.4457 9.75045 14.755C9.75045 14.0643 10.311 13.5037 11.0017 13.5037C11.6924 13.5037 12.253 14.0643 12.253 14.755C12.253 15.4457 11.6924 16.0062 11.0017 16.0062Z" fill="#3182EE"/>
</svg>
