<svg width="20" height="20" viewBox="0 0 20 20" fill="none" xmlns="http://www.w3.org/2000/svg">
<path d="M9.9999 0.900391C4.9767 0.900391 0.899902 4.97719 0.899902 10.0004C0.899902 15.0236 4.9767 19.1004 9.9999 19.1004C15.0231 19.1004 19.0999 15.0236 19.0999 10.0004C19.0999 4.97719 15.0231 0.900391 9.9999 0.900391ZM9.0899 5.45039H10.9099V10.9104H9.0899V5.45039ZM9.9999 14.5504C9.372 14.5504 8.8624 14.0408 8.8624 13.4129C8.8624 12.785 9.372 12.2754 9.9999 12.2754C10.6278 12.2754 11.1374 12.785 11.1374 13.4129C11.1374 14.0408 10.6278 14.5504 9.9999 14.5504Z" fill="#999999"/>
</svg>
