<svg width="20" height="20" viewBox="0 0 20 20" fill="none" xmlns="http://www.w3.org/2000/svg">
<path d="M6.47654 2.03242L7.37404 1.74576C8.21404 1.47742 9.11237 1.91159 9.47237 2.75992L10.189 4.44992C10.5015 5.18576 10.3282 6.05159 9.7607 6.58992L8.1832 8.08826C8.28043 8.98492 8.58154 9.86742 9.08654 10.7358C9.56676 11.5756 10.2102 12.3109 10.979 12.8983L12.8757 12.2649C13.594 12.0258 14.3765 12.3016 14.8174 12.9491L15.844 14.4574C16.3574 15.2108 16.2649 16.2491 15.629 16.8874L14.9474 17.5716C14.269 18.2524 13.3007 18.4999 12.404 18.2199C10.2885 17.5599 8.3432 15.6008 6.5682 12.3424C4.79098 9.07853 4.16376 6.30965 4.68654 4.03576C4.90654 3.07909 5.5882 2.31659 6.4782 2.03242" fill="#222222"/>
</svg>
