<svg width="72" height="24" viewBox="0 0 72 24" fill="none" xmlns="http://www.w3.org/2000/svg">
<g clip-path="url(#clip0_2062_818)">
<path fill-rule="evenodd" clip-rule="evenodd" d="M13.5237 4.42898L26.9873 0.452393V1.35817L13.5258 5.33475V4.42898H13.5237ZM13.5237 19.5886V18.6828L27.0795 14.6753L27.0946 15.5988L13.5237 19.5908V19.5886ZM13.5237 17.5517L16.7658 16.5973C17.5999 16.7564 18.5112 16.7078 19.4053 16.4537C20.3166 16.1842 21.1036 15.7225 21.7211 15.1326L27.0774 13.5574L27.0624 12.6517L22.6774 13.9396C22.8168 13.701 22.939 13.447 23.0334 13.1752C22.2915 14.4168 20.9492 15.4662 19.266 15.9589C17.5977 16.4515 15.9167 16.2924 14.6494 15.6562C14.866 15.8307 15.0976 15.9743 15.3441 16.1025L13.5215 16.6437V17.5495L13.5237 17.5517ZM13.5237 15.5148L15.0375 15.0685C16.2104 15.4021 17.5999 15.3867 18.9893 14.9735C20.3938 14.5604 21.5667 13.8115 22.3858 12.9057L27.0645 11.5228V10.617L23.1899 11.7614C23.4065 11.3482 23.5609 10.9351 23.623 10.5043L27.0495 9.48586V8.58009L23.5137 9.62946L23.4515 9.64493C23.1899 11.6023 21.3673 13.511 18.7899 14.2578C16.8301 14.8454 14.8831 14.6245 13.5258 13.796V14.3837C13.603 14.4323 13.6802 14.4941 13.7724 14.5427L13.5258 14.6068V15.5126L13.5237 15.5148ZM13.5237 12.8748V12.0949C14.836 12.6671 16.5192 12.7798 18.2324 12.2695C20.7498 11.5228 22.5402 9.69353 22.864 7.78477L23.1427 7.68977L27.0324 6.5454V7.46885L23.1256 8.61322C22.8468 10.5529 21.0264 12.4307 18.494 13.1775C16.6714 13.7187 14.851 13.5597 13.5237 12.8748ZM13.5237 10.712C14.7888 11.2996 16.3326 11.4278 17.8765 10.9815C20.0079 10.3452 21.5667 8.73915 22.0921 6.87678L27.0174 5.42975V4.52397L22.2615 5.92461L21.6439 6.09914L21.3823 6.17867C21.1207 7.99243 19.6991 9.64713 17.6621 10.2348C16.1804 10.681 14.6816 10.4579 13.5237 9.77306V10.712ZM13.5237 7.51524C14.42 8.40556 15.7923 8.77229 17.1367 8.37463C18.5412 7.96151 19.5297 6.8326 19.7763 5.52695L27.0024 3.39506V2.48929L19.8385 4.60571L18.8821 4.89291C18.8971 6.03728 18.0952 7.13526 16.8901 7.50199C15.6701 7.85105 14.435 7.35839 13.8496 6.37308L13.5258 6.46808V7.51745L13.5237 7.51524ZM0 8.42102L13.5237 4.42898V5.33475L0 9.32901V8.42323V8.42102ZM13.5237 6.46587L12.8911 6.65586L0.0150096 10.4579V11.3637L13.4165 7.40258C13.4465 7.45118 13.4787 7.48211 13.5237 7.51304V6.46366V6.46587ZM13.5237 9.77306C13.0906 9.519 12.7217 9.20087 12.413 8.83414L12.2586 8.86507L11.5167 9.0882L0.0300193 12.4926V13.3984L12.1642 9.80399C12.5652 10.1707 13.0134 10.4712 13.5237 10.7098V9.77085V9.77306ZM13.5237 12.0949V12.8748C12.9984 12.6053 12.5352 12.254 12.1814 11.8409L0.0471732 15.4198L0.0321635 14.514L11.6882 11.0787L11.982 10.9992C12.383 11.4609 12.9083 11.8254 13.5258 12.0972L13.5237 12.0949ZM13.5237 13.7982V14.3859C13.2299 14.1959 12.9683 13.9573 12.7518 13.7187L0.0621828 17.4567L0.0471732 16.5509L12.413 12.9079L12.4602 12.8925C12.7539 13.2415 13.1077 13.5442 13.5258 13.7982H13.5237ZM13.5237 14.609L0.0621828 18.5856L0.0771925 19.4914L13.5237 15.5148V14.609ZM13.5237 16.6459L0.0771925 20.6225L0.0922021 21.5283L13.5237 17.5517V16.6459ZM13.5237 18.6806V19.5864L0.107212 23.5475L0.0922021 22.6417L13.5237 18.6806Z" fill="#666666"/>
<path fill-rule="evenodd" clip-rule="evenodd" d="M48.9367 13.5868V10.6851C49.722 10.5069 50.3369 10.1119 50.7389 9.34126C50.9678 8.90793 51.045 8.51299 50.9678 8.01932C50.872 7.38853 50.5472 6.93326 50.0468 6.61786C49.722 6.40119 49.3946 6.28326 49.0299 6.22292H48.9341V5.23559C49.163 5.25479 49.3946 5.27399 49.6421 5.31512C50.9651 5.55099 51.809 6.00626 52.2482 6.61786C52.4026 6.85372 52.517 7.11153 52.5543 7.40773C52.9962 9.83767 51.6333 11.3571 49.3147 11.5737L54.1248 17.7939L54.7956 18.4659H52.5729L48.9314 13.5895L48.9367 13.5868ZM62.8693 5.21365H60.7983L64.9775 11.5518L59.9571 18.4631H62.0281L62.2384 17.7912L65.8214 12.8353L69.0982 17.7912L69.2899 18.4631H71.3795L66.7983 11.5134L71.3795 5.21365H69.2899L69.0982 5.88558L65.9358 10.2299L63.0796 5.88558L62.8693 5.21365ZM56.257 5.21365H58.328L58.0592 5.88558V17.7939L58.328 18.4659H56.257L56.5445 17.7939V5.88558L56.257 5.21365ZM37.6102 5.19445C41.2331 5.19445 44.2038 8.19485 44.2038 11.8699C44.2038 15.545 41.2331 18.5454 37.6102 18.5454V17.5389C40.3307 17.5389 42.5561 14.991 42.5561 11.8727C42.5561 8.75434 40.3334 6.20647 37.6102 6.20647V5.19993V5.19445ZM48.9367 5.23285V6.22018C47.824 6.08305 47.1932 6.14065 46.8657 6.35731V10.7208H48.6679C48.7637 10.7016 48.8409 10.7016 48.9367 10.6824V13.5841L46.9829 10.9566C46.9456 10.9374 46.9057 10.9374 46.8684 10.9183V17.7912L47.1559 18.4631H45.0849L45.3724 17.7912V5.88558L45.0849 5.21365H47.1559V5.23285H48.9394H48.9367ZM37.6102 5.19445V6.20098C34.8897 6.20098 32.6643 8.74886 32.6643 11.8672C32.6643 14.9855 34.8871 17.5334 37.6102 17.5334V18.5399C33.9873 18.5399 31.0166 15.5395 31.0166 11.8644C31.0166 8.18937 33.9873 5.18896 37.6102 5.18896V5.19445Z" fill="#666666"/>
</g>
<defs>
<clipPath id="clip0_2062_818">
<rect width="72" height="24" fill="white"/>
</clipPath>
</defs>
</svg>
