<svg width="50" height="50" viewBox="0 0 50 50" fill="none" xmlns="http://www.w3.org/2000/svg">
<g opacity="0.8">
<path d="M6.33215 19.3705H11.4742" stroke="white" stroke-width="1.5" stroke-miterlimit="10" stroke-linecap="square"/>
<path d="M42.6678 19.3705H37.5258" stroke="white" stroke-width="1.5" stroke-miterlimit="10" stroke-linecap="square"/>
<path d="M38.0882 21.125H10.9826C8.74691 21.125 6.93451 22.9518 6.93451 25.2054V30.0089C6.93451 32.2624 8.74691 34.0893 10.9826 34.0893H38.0882C40.3239 34.0893 42.1363 32.2624 42.1363 30.0089V25.2054C42.1363 22.9518 40.3239 21.125 38.0882 21.125Z" stroke="white" stroke-width="1.5" stroke-miterlimit="10"/>
<path d="M37.601 21.125H11.4742L13.1528 14.6384C13.6577 12.692 15.4028 11.3348 17.3958 11.3348H31.6706C33.668 11.3348 35.4131 12.692 35.9136 14.6384L37.5922 21.125H37.601Z" stroke="white" stroke-width="1.5" stroke-miterlimit="10"/>
<path d="M13.5603 30.1741C14.9668 30.1741 16.107 29.0248 16.107 27.6071C16.107 26.1894 14.9668 25.0402 13.5603 25.0402C12.1538 25.0402 11.0136 26.1894 11.0136 27.6071C11.0136 29.0248 12.1538 30.1741 13.5603 30.1741Z" fill="white"/>
<path d="M35.5149 30.1741C36.9214 30.1741 38.0616 29.0248 38.0616 27.6071C38.0616 26.1894 36.9214 25.0402 35.5149 25.0402C34.1085 25.0402 32.9683 26.1894 32.9683 27.6071C32.9683 29.0248 34.1085 30.1741 35.5149 30.1741Z" fill="white"/>
<path d="M11.1421 34.0893H15.9786V38.1339C15.9786 38.9777 15.2965 39.6652 14.4594 39.6652H12.6612C11.8242 39.6652 11.1421 38.9777 11.1421 38.1339V34.0893Z" stroke="white" stroke-width="1.5" stroke-miterlimit="10"/>
<path d="M36.4096 39.6652H34.6114C33.7744 39.6652 33.0923 38.9777 33.0923 38.1339V34.0893H37.9288V38.1339C37.9288 38.9777 37.2467 39.6652 36.4096 39.6652Z" stroke="white" stroke-width="1.5" stroke-miterlimit="10"/>
</g>
</svg>
