<svg width="50" height="50" viewBox="0 0 50 50" fill="none" xmlns="http://www.w3.org/2000/svg">
<g opacity="0.8">
<path d="M23.7828 20.53C26.6779 20.53 29.0248 18.1728 29.0248 15.265C29.0248 12.3572 26.6779 10 23.7828 10C20.8877 10 18.5408 12.3572 18.5408 15.265C18.5408 18.1728 20.8877 20.53 23.7828 20.53Z" stroke="white" stroke-width="1.5" stroke-linejoin="bevel"/>
<path d="M11 37.2913L12.9906 28.3513C13.602 25.5998 16.0382 23.6433 18.844 23.6433H28.7165C31.5224 23.6433 33.9585 25.5998 34.5699 28.3513L36.5605 37.2913" stroke="white" stroke-width="1.5" stroke-linejoin="bevel"/>
<path d="M36.7051 30.1176V33.5834H40.1553V35.6772H36.7051V39.143H34.624V35.6772H31.1787V33.5834H34.624V30.1176H36.7051Z" fill="white" stroke="white"/>
<mask id="path-4-inside-1_2723_305" fill="white">
<path d="M36.8497 29.9746V33.4402H40.3001V35.8204H36.8497V39.2859H34.4799V35.8204H31.0295V33.4402H34.4799V29.9746H36.8497ZM37.5606 29.2606H33.769V32.7261H30.3185V36.5344H33.769V40H37.5606V36.5344H41.011V32.7261H37.5606V29.2606Z"/>
</mask>
<path d="M36.8497 29.9746H37.8497V28.9746H36.8497V29.9746ZM36.8497 33.4402H35.8497V34.4402H36.8497V33.4402ZM40.3001 33.4402H41.3001V32.4402H40.3001V33.4402ZM40.3001 35.8204V36.8204H41.3001V35.8204H40.3001ZM36.8497 35.8204V34.8204H35.8497V35.8204H36.8497ZM36.8497 39.2859V40.2859H37.8497V39.2859H36.8497ZM34.4799 39.2859H33.4799V40.2859H34.4799V39.2859ZM34.4799 35.8204H35.4799V34.8204H34.4799V35.8204ZM31.0295 35.8204H30.0295V36.8204H31.0295V35.8204ZM31.0295 33.4402V32.4402H30.0295V33.4402H31.0295ZM34.4799 33.4402V34.4402H35.4799V33.4402H34.4799ZM34.4799 29.9746V28.9746H33.4799V29.9746H34.4799ZM37.5606 29.2606H38.5606V28.2606H37.5606V29.2606ZM33.769 29.2606V28.2606H32.769V29.2606H33.769ZM33.769 32.7261V33.7261H34.769V32.7261H33.769ZM30.3185 32.7261V31.7261H29.3185V32.7261H30.3185ZM30.3185 36.5344H29.3185V37.5344H30.3185V36.5344ZM33.769 36.5344H34.769V35.5344H33.769V36.5344ZM33.769 40H32.769V41H33.769V40ZM37.5606 40V41H38.5606V40H37.5606ZM37.5606 36.5344V35.5344H36.5606V36.5344H37.5606ZM41.011 36.5344V37.5344H42.011V36.5344H41.011ZM41.011 32.7261H42.011V31.7261H41.011V32.7261ZM37.5606 32.7261H36.5606V33.7261H37.5606V32.7261ZM36.8497 29.9746H35.8497V33.4402H36.8497H37.8497V29.9746H36.8497ZM36.8497 33.4402V34.4402H40.3001V33.4402V32.4402H36.8497V33.4402ZM40.3001 33.4402H39.3001V35.8204H40.3001H41.3001V33.4402H40.3001ZM40.3001 35.8204V34.8204H36.8497V35.8204V36.8204H40.3001V35.8204ZM36.8497 35.8204H35.8497V39.2859H36.8497H37.8497V35.8204H36.8497ZM36.8497 39.2859V38.2859H34.4799V39.2859V40.2859H36.8497V39.2859ZM34.4799 39.2859H35.4799V35.8204H34.4799H33.4799V39.2859H34.4799ZM34.4799 35.8204V34.8204H31.0295V35.8204V36.8204H34.4799V35.8204ZM31.0295 35.8204H32.0295V33.4402H31.0295H30.0295V35.8204H31.0295ZM31.0295 33.4402V34.4402H34.4799V33.4402V32.4402H31.0295V33.4402ZM34.4799 33.4402H35.4799V29.9746H34.4799H33.4799V33.4402H34.4799ZM34.4799 29.9746V30.9746H36.8497V29.9746V28.9746H34.4799V29.9746ZM37.5606 29.2606V28.2606H33.769V29.2606V30.2606H37.5606V29.2606ZM33.769 29.2606H32.769V32.7261H33.769H34.769V29.2606H33.769ZM33.769 32.7261V31.7261H30.3185V32.7261V33.7261H33.769V32.7261ZM30.3185 32.7261H29.3185V36.5344H30.3185H31.3185V32.7261H30.3185ZM30.3185 36.5344V37.5344H33.769V36.5344V35.5344H30.3185V36.5344ZM33.769 36.5344H32.769V40H33.769H34.769V36.5344H33.769ZM33.769 40V41H37.5606V40V39H33.769V40ZM37.5606 40H38.5606V36.5344H37.5606H36.5606V40H37.5606ZM37.5606 36.5344V37.5344H41.011V36.5344V35.5344H37.5606V36.5344ZM41.011 36.5344H42.011V32.7261H41.011H40.011V36.5344H41.011ZM41.011 32.7261V31.7261H37.5606V32.7261V33.7261H41.011V32.7261ZM37.5606 32.7261H38.5606V29.2606H37.5606H36.5606V32.7261H37.5606Z" fill="white" mask="url(#path-4-inside-1_2723_305)"/>
</g>
</svg>
