<svg width="50" height="50" viewBox="0 0 50 50" fill="none" xmlns="http://www.w3.org/2000/svg">
<mask id="mask0_2797_2596" style="mask-type:alpha" maskUnits="userSpaceOnUse" x="0" y="0" width="50" height="50">
<rect width="50" height="50" fill="#BD1ECC"/>
</mask>
<g mask="url(#mask0_2797_2596)">
</g>
<g clip-path="url(#clip0_2797_2596)">
<path d="M33.2133 19.5945V16.6867C33.2133 12.4489 29.7533 9 25.5019 9C21.2505 9 17.7905 12.4489 17.7905 16.6867V19.5945C15.0645 20.1319 13 22.5328 13 25.4062V35.5701C13 38.8399 15.6686 41.5 18.9489 41.5H32.0549C35.3352 41.5 38.0038 38.8399 38.0038 35.5701V25.4062C38.0038 22.5328 35.9393 20.1319 33.2133 19.5945ZM26.3507 32.0716V34.7241C26.3507 35.1928 25.9722 35.5701 25.5019 35.5701C25.0317 35.5701 24.6532 35.1928 24.6532 34.7241V32.0716C23.1889 31.6944 22.1031 30.372 22.1031 28.7942C22.1031 26.9268 23.6285 25.4062 25.5019 25.4062C27.3753 25.4062 28.9008 26.9268 28.9008 28.7942C28.9008 30.3681 27.815 31.6944 26.3507 32.0716ZM31.512 19.4802H19.488V16.6867C19.488 13.3826 22.1872 10.6921 25.5019 10.6921C28.8166 10.6921 31.512 13.3826 31.512 16.6867V19.4802Z" fill="#808695"/>
<path d="M25.5019 27.0602C24.5538 27.0602 23.7815 27.8262 23.7815 28.7751C23.7815 29.7241 24.55 30.4901 25.5019 30.4901C26.4539 30.4901 27.2224 29.7241 27.2224 28.7751C27.2224 27.8262 26.4539 27.0602 25.5019 27.0602Z" fill="#808695"/>
</g>
<defs>
<clipPath id="clip0_2797_2596">
<rect width="25" height="32.5" fill="white" transform="translate(13 9)"/>
</clipPath>
</defs>
</svg>
