<svg width="40" height="40" viewBox="0 0 40 40" fill="none" xmlns="http://www.w3.org/2000/svg">
<mask id="mask0_2814_2446" style="mask-type:alpha" maskUnits="userSpaceOnUse" x="0" y="0" width="40" height="40">
<path d="M40 0H0V40H40V0Z" fill="#222222"/>
</mask>
<g mask="url(#mask0_2814_2446)">
<path fill-rule="evenodd" clip-rule="evenodd" d="M32 31.5C32 30.9477 31.5523 30.5 31 30.5H9.4054C8.85312 30.5 8.4054 30.9477 8.4054 31.5C8.4054 32.0523 8.85312 32.5 9.4054 32.5H31C31.5523 32.5 32 32.0523 32 31.5Z" fill="white"/>
<path fill-rule="evenodd" clip-rule="evenodd" d="M29.8016 7.29289C29.4111 6.90237 28.7779 6.90237 28.3874 7.29289L10.6036 25.0767C10.2131 25.4672 10.2131 26.1004 10.6036 26.4909C10.9941 26.8814 11.6273 26.8814 12.0178 26.4909L29.8016 8.70711C30.1921 8.31658 30.1921 7.68342 29.8016 7.29289Z" fill="white"/>
<path fill-rule="evenodd" clip-rule="evenodd" d="M30.0945 8C30.0945 7.44772 29.6468 7 29.0945 7H16.0488C15.4965 7 15.0488 7.44772 15.0488 8C15.0488 8.55228 15.4965 9 16.0488 9H28.0945V21.0457C28.0945 21.598 28.5422 22.0457 29.0945 22.0457C29.6468 22.0457 30.0945 21.598 30.0945 21.0457V8Z" fill="white"/>
</g>
</svg>
