<svg width="50" height="50" viewBox="0 0 50 50" fill="none" xmlns="http://www.w3.org/2000/svg">
<mask id="mask0_2797_2646" style="mask-type:alpha" maskUnits="userSpaceOnUse" x="0" y="0" width="50" height="50">
<rect width="50" height="50" fill="#BD1ECC"/>
</mask>
<g mask="url(#mask0_2797_2646)">
<path fill-rule="evenodd" clip-rule="evenodd" d="M38 37.902C38 37.2956 37.5084 36.804 36.902 36.804H13.1902C12.5838 36.804 12.0922 37.2956 12.0922 37.902C12.0922 38.5084 12.5838 39 13.1902 39H36.902C37.5084 39 38 38.5084 38 37.902Z" fill="#222222"/>
<path fill-rule="evenodd" clip-rule="evenodd" d="M35.5862 11.3216C35.1574 10.8928 34.4621 10.8928 34.0333 11.3216L14.506 30.8489C14.0772 31.2778 14.0772 31.973 14.506 32.4018C14.9348 32.8306 15.6301 32.8306 16.0589 32.4018L35.5862 12.8745C36.015 12.4457 36.015 11.7504 35.5862 11.3216Z" fill="#222222"/>
<path fill-rule="evenodd" clip-rule="evenodd" d="M35.9078 12.098C35.9078 11.4916 35.4162 11 34.8098 11H20.4851C19.8786 11 19.387 11.4916 19.387 12.098C19.387 12.7045 19.8786 13.1961 20.4851 13.1961H33.7117V26.4228C33.7117 27.0292 34.2033 27.5208 34.8098 27.5208C35.4162 27.5208 35.9078 27.0292 35.9078 26.4228V12.098Z" fill="#222222"/>
</g>
</svg>
