<svg width="50" height="50" viewBox="0 0 50 50" fill="none" xmlns="http://www.w3.org/2000/svg">
<mask id="mask0_2797_3055" style="mask-type:alpha" maskUnits="userSpaceOnUse" x="0" y="0" width="50" height="50">
<rect width="50" height="50" fill="#BD1ECC"/>
</mask>
<g mask="url(#mask0_2797_3055)">
<path fill-rule="evenodd" clip-rule="evenodd" d="M11.9635 25.9534C12.4956 25.9534 12.9269 26.3847 12.9269 26.9168V34.1963H36.9064V26.9168C36.9064 26.3847 37.3378 25.9534 37.8699 25.9534C38.402 25.9534 38.8333 26.3847 38.8333 26.9168V35.1598C38.8333 35.6919 38.402 36.1232 37.8699 36.1232H11.9635C11.4314 36.1232 11 35.6919 11 35.1598V26.9168C11 26.3847 11.4314 25.9534 11.9635 25.9534Z" fill="#454545"/>
<path fill-rule="evenodd" clip-rule="evenodd" d="M18.2765 23.9598C18.6089 23.5443 19.2152 23.4769 19.6307 23.8093L24.9166 28.0381L30.2026 23.8093C30.6181 23.4769 31.2244 23.5443 31.5568 23.9598C31.8892 24.3753 31.8218 24.9816 31.4063 25.314L25.5185 30.0242C25.1666 30.3057 24.6666 30.3057 24.3147 30.0242L18.4269 25.314C18.0114 24.9816 17.9441 24.3753 18.2765 23.9598Z" fill="#454545"/>
<path fill-rule="evenodd" clip-rule="evenodd" d="M24.9166 13C25.4487 13 25.88 13.4314 25.88 13.9635V29.2718C25.88 29.8039 25.4487 30.2352 24.9166 30.2352C24.3844 30.2352 23.9531 29.8039 23.9531 29.2718V13.9635C23.9531 13.4314 24.3844 13 24.9166 13Z" fill="#454545"/>
</g>
</svg>
