<svg width="25" height="33" viewBox="0 0 25 33" fill="none" xmlns="http://www.w3.org/2000/svg">
<g clip-path="url(#clip0_2797_2534)">
<path d="M20.2133 10.5945V7.68674C20.2133 3.44893 16.7533 0 12.5019 0C8.2505 0 4.79049 3.44893 4.79049 7.68674V10.5945C2.06454 11.1319 0 13.5328 0 16.4062V26.5701C0 29.8399 2.6686 32.5 5.94892 32.5H19.0549C22.3352 32.5 25.0038 29.8399 25.0038 26.5701V16.4062C25.0038 13.5328 22.9393 11.1319 20.2133 10.5945ZM13.3507 23.0716V25.7241C13.3507 26.1928 12.9722 26.5701 12.5019 26.5701C12.0317 26.5701 11.6532 26.1928 11.6532 25.7241V23.0716C10.1889 22.6944 9.10307 21.372 9.10307 19.7942C9.10307 17.9268 10.6285 16.4062 12.5019 16.4062C14.3753 16.4062 15.9008 17.9268 15.9008 19.7942C15.9008 21.3681 14.815 22.6944 13.3507 23.0716ZM18.512 10.4802H6.488V7.68674C6.488 4.38262 9.18719 1.69207 12.5019 1.69207C15.8166 1.69207 18.512 4.38262 18.512 7.68674V10.4802Z" fill="black"/>
<path d="M12.5019 18.0603C11.5538 18.0603 10.7815 18.8263 10.7815 19.7752C10.7815 20.7242 11.5499 21.4902 12.5019 21.4902C13.4539 21.4902 14.2224 20.7242 14.2224 19.7752C14.2224 18.8263 13.4539 18.0603 12.5019 18.0603Z" fill="black"/>
</g>
<defs>
<clipPath id="clip0_2797_2534">
<rect width="25" height="32.5" fill="white"/>
</clipPath>
</defs>
</svg>
