<svg width="28" height="28" viewBox="0 0 28 28" fill="none" xmlns="http://www.w3.org/2000/svg">
<mask id="mask0_2826_2955" style="mask-type:alpha" maskUnits="userSpaceOnUse" x="0" y="0" width="28" height="28">
<path d="M28 0H0V28H28V0Z" fill="white"/>
</mask>
<g mask="url(#mask0_2826_2955)">
<path fill-rule="evenodd" clip-rule="evenodd" d="M16.7975 7.04148L8.32391 15.1673C8.30655 15.1879 8.28799 15.2076 8.26832 15.2261C7.86781 15.6036 7.54871 16.0589 7.3306 16.5642C7.11249 17.0695 6.99998 17.614 6.99998 18.1644C6.99998 18.7147 7.11249 19.2593 7.3306 19.7646C7.54871 20.2698 7.86781 20.7252 8.26832 21.1027C9.11115 21.8967 10.2254 22.339 11.3834 22.339C12.5404 22.339 13.6537 21.8975 14.4963 21.1048L20.9745 14.8879C21.2535 14.6202 21.6966 14.6293 21.9643 14.9082C22.2319 15.1872 22.2228 15.6303 21.9439 15.898L15.4587 22.1216C14.3561 23.1604 12.8983 23.739 11.3834 23.739C9.86849 23.739 8.41077 23.1604 7.30818 22.1215C6.7688 21.6132 6.33898 20.9999 6.04524 20.3194C5.7515 19.6389 5.59998 18.9056 5.59998 18.1644C5.59998 17.4232 5.7515 16.6899 6.04524 16.0094C6.33033 15.3489 6.74354 14.7518 7.26074 14.2525C7.27655 14.2338 7.29334 14.2159 7.31106 14.1989L15.835 6.02473C16.6013 5.30227 17.6146 4.8999 18.6678 4.8999C19.7207 4.8999 20.7338 5.3021 21.5 6.02424M16.7975 7.04148C17.3037 6.56516 17.9726 6.2999 18.6678 6.2999C19.3639 6.2999 20.0336 6.56586 20.5401 7.04338L20.5406 7.04389C20.7791 7.26825 20.9691 7.53905 21.099 7.83961C21.2289 8.14017 21.2959 8.46413 21.2959 8.79156C21.2959 9.11899 21.2289 9.44296 21.099 9.74352C20.9691 10.0441 20.7791 10.3149 20.5406 10.5392L12.0389 18.6919C12.0277 18.7013 12.0167 18.711 12.006 18.721C11.8005 18.9146 11.5287 19.0224 11.2464 19.0224C10.964 19.0224 10.6923 18.9146 10.4867 18.721C10.3941 18.6339 10.32 18.5285 10.2695 18.4118C10.2191 18.295 10.193 18.1692 10.193 18.0421C10.193 17.9149 10.2191 17.7891 10.2695 17.6724C10.32 17.5556 10.3938 17.4505 10.4864 17.3634L18.0997 10.0601C18.3787 9.79243 18.3879 9.34931 18.1203 9.07033C17.8527 8.79134 17.4096 8.78213 17.1306 9.04976L9.52454 16.3461C9.29401 16.5637 9.11024 16.8259 8.98446 17.1169C8.85819 17.409 8.79305 17.7238 8.79305 18.0421C8.79305 18.3603 8.85819 18.6752 8.98446 18.9673C9.11074 19.2594 9.29547 19.5225 9.52728 19.7406C9.99254 20.1785 10.6074 20.4224 11.2464 20.4224C11.8754 20.4224 12.4811 20.186 12.9437 19.7608C12.9584 19.7489 12.9725 19.7364 12.9862 19.7233L21.5025 11.5565C21.8789 11.2017 22.1789 10.7738 22.3842 10.2989C22.5898 9.823 22.6959 9.31002 22.6959 8.79156C22.6959 8.2731 22.5898 7.76013 22.3842 7.28421C22.1786 6.80852 21.8779 6.37991 21.5005 6.02475" fill="#757575"/>
</g>
</svg>
