<svg width="28" height="28" viewBox="0 0 28 28" fill="none" xmlns="http://www.w3.org/2000/svg">
<path d="M13.9999 23.0999C19.0257 23.0999 23.0999 19.0257 23.0999 13.9999C23.0999 8.97411 19.0257 4.8999 13.9999 4.8999C8.97411 4.8999 4.8999 8.97411 4.8999 13.9999C4.8999 19.0257 8.97411 23.0999 13.9999 23.0999Z" fill="#3182EE"/>
<path d="M14 10.5875C14.6283 10.5875 15.1375 10.0782 15.1375 9.45C15.1375 8.82178 14.6283 8.3125 14 8.3125C13.3718 8.3125 12.8625 8.82178 12.8625 9.45C12.8625 10.0782 13.3718 10.5875 14 10.5875Z" fill="white"/>
<path d="M14.9101 12.4077H13.0901V19.6877H14.9101V12.4077Z" fill="white"/>
</svg>
