<svg width="26" height="26" viewBox="0 0 26 26" fill="none" xmlns="http://www.w3.org/2000/svg">
<path d="M13 21.4498C17.6668 21.4498 21.45 17.6666 21.45 12.9998C21.45 8.333 17.6668 4.5498 13 4.5498C8.33318 4.5498 4.54999 8.333 4.54999 12.9998C4.54999 17.6666 8.33318 21.4498 13 21.4498Z" fill="#757575"/>
<path d="M13 9.83125C13.5833 9.83125 14.0562 9.35835 14.0562 8.775C14.0562 8.19165 13.5833 7.71875 13 7.71875C12.4166 7.71875 11.9437 8.19165 11.9437 8.775C11.9437 9.35835 12.4166 9.83125 13 9.83125Z" fill="white"/>
<path d="M13.845 11.5215H12.155V18.2815H13.845V11.5215Z" fill="white"/>
</svg>
