<svg width="16" height="16" viewBox="0 0 16 16" fill="none" xmlns="http://www.w3.org/2000/svg">
<path d="M4.62354 2.07358V4.7922C4.62354 5.13972 4.92053 5.42184 5.28638 5.42184C5.65222 5.42184 5.94922 5.13972 5.94922 4.7922V2.07358C5.94922 1.62476 6.33396 1.25928 6.80646 1.25928H13.8169C14.2894 1.25928 14.6742 1.62476 14.6742 2.07358V13.9265C14.6742 14.3753 14.2894 14.7408 13.8169 14.7408H6.80646C6.33396 14.7408 5.94922 14.3753 5.94922 13.9265V11.2079C5.94922 10.8603 5.65222 10.5782 5.28638 10.5782C4.92053 10.5782 4.62354 10.8603 4.62354 11.2079V13.9265C4.62354 15.0703 5.60227 16.0001 6.80646 16.0001H13.8169C15.0211 16.0001 15.9998 15.0703 15.9998 13.9265V2.07358C15.9998 0.929714 15.0211 0 13.8169 0H6.80646C5.60227 0 4.62354 0.929714 4.62354 2.07358Z" fill="black"/>
<path d="M2.73777 5.13712L0.193048 7.55565C0.193048 7.55565 0.190348 7.55822 0.188998 7.5595C0.175498 7.57233 0.161998 7.58643 0.149848 7.60182C0.143098 7.60951 0.137698 7.61721 0.130948 7.62618C0.124198 7.63516 0.117449 7.64286 0.110699 7.65183C0.103949 7.66081 0.0985488 7.67107 0.0917988 7.68004C0.0863989 7.68774 0.080999 7.69543 0.076949 7.70441C0.0715491 7.71467 0.0661492 7.72364 0.0620992 7.7339C0.0580493 7.74288 0.0526493 7.75057 0.0499494 7.75955C0.0458994 7.76853 0.0418495 7.77879 0.0391495 7.78905C0.0350996 7.7993 0.0310496 7.80828 0.0283496 7.81854C0.0256497 7.8288 0.0229497 7.83778 0.0202497 7.84803C0.0175498 7.85829 0.0148498 7.86855 0.0121498 7.87881C0.00944988 7.89035 0.0080999 7.90061 0.00674991 7.91215C0.00539993 7.92113 0.00404995 7.93011 0.00269997 7.93908C0 7.9596 0 7.98012 0 8.00064C0 8.02115 0 8.04167 0.00269997 8.06219C0.00269997 8.07117 0.00539993 8.08014 0.00674991 8.0904C0.0080999 8.10194 0.00944988 8.1122 0.0121498 8.12374C0.0148498 8.134 0.0175498 8.14426 0.0202497 8.15452C0.0229497 8.1635 0.0256497 8.17375 0.0283496 8.18273C0.0310496 8.19299 0.0350996 8.20325 0.0391495 8.21223C0.0431995 8.2212 0.0458994 8.23146 0.0499494 8.24044C0.0539993 8.24941 0.0580493 8.25839 0.0634492 8.26737C0.0688491 8.27763 0.0728991 8.2866 0.078299 8.29558C0.0836989 8.30456 0.0890989 8.31225 0.0944988 8.32123C0.0998987 8.3302 0.105299 8.34046 0.112049 8.34944C0.118798 8.35842 0.125548 8.36739 0.132298 8.37637C0.137698 8.38406 0.143098 8.39176 0.149848 8.39945C0.163348 8.41484 0.178198 8.43151 0.193048 8.44562L2.73777 10.8629C2.99696 11.1091 3.41681 11.1091 3.676 10.8629C3.9352 10.6167 3.9352 10.2178 3.676 9.97163L2.26257 8.62899H9.97502C10.3409 8.62899 10.6379 8.34687 10.6379 7.99935C10.6379 7.65183 10.3409 7.36971 9.97502 7.36971H2.26257L3.676 6.02708C3.9352 5.78086 3.9352 5.38205 3.676 5.13583C3.41681 4.88962 2.99696 4.88962 2.73777 5.13583V5.13712Z" fill="black"/>
</svg>
