<svg width="70" height="70" viewBox="0 0 70 70" fill="none" xmlns="http://www.w3.org/2000/svg">
<rect width="70" height="70" rx="35" fill="#0545AA"/>
<path d="M45.2272 46.2036L37.5875 50.5755C36.9804 50.9229 36.2065 50.7122 35.8594 50.1054L34.841 48.3259C34.4936 47.7185 34.7043 46.9449 35.3111 46.5978L42.9508 42.2259C43.5582 41.8785 44.3315 42.089 44.6789 42.696L45.6973 44.4755C46.0447 45.0826 45.8343 45.8562 45.2272 46.2036Z" fill="white"/>
<path d="M42.6406 19.8174H26.3025C26.3147 19.927 26.3025 20.0375 26.2677 20.1408C26.4431 20.3175 26.6193 20.4924 26.7969 20.663C31.6971 25.3856 37.2618 27.8965 39.4045 28.7499C39.5252 28.7982 39.6354 28.841 39.734 28.8786C39.734 28.8789 39.7348 28.8792 39.7353 28.8794C39.9405 28.9932 40.1184 29.1631 40.2433 29.3813C40.325 29.5243 40.3778 29.6762 40.4023 29.8298C40.4073 29.879 40.4123 29.9309 40.4175 29.9848C40.6194 31.9695 41.2279 36.7757 42.6271 40.0237C42.6273 40.0246 42.6279 40.0251 42.6279 40.0262C42.6439 40.0629 42.6596 40.0994 42.6759 40.1353C42.6765 40.1364 42.6773 40.1378 42.6776 40.1392C42.9101 40.7415 42.6748 41.4389 42.0973 41.7692L35.3505 45.6298C34.7932 45.9488 34.1019 45.8199 33.6931 45.3556C33.6931 45.3553 33.6928 45.3547 33.692 45.3547C33.6415 45.2818 33.5896 45.2092 33.5368 45.1366C31.3552 42.1424 27.5305 39.2595 25.9808 38.1545C25.9772 38.1525 25.9739 38.15 25.9711 38.1476C25.9587 38.1387 25.9468 38.1302 25.9347 38.1216C25.9322 38.1197 25.9297 38.1177 25.9269 38.1158C25.7899 38.0111 25.6703 37.8777 25.5795 37.7186C25.4477 37.4883 25.3922 37.2347 25.4057 36.9878C25.4193 36.9044 25.4336 36.8138 25.4483 36.7172C25.799 34.4212 26.4445 28.3685 24.8603 21.7717C24.8028 21.5319 24.7415 21.2917 24.678 21.0508C24.475 21.0088 24.2902 20.8832 24.1792 20.6893C23.9944 20.3667 24.0756 19.9648 24.3543 19.7373C24.3861 19.711 24.4206 19.687 24.4576 19.6657L24.4783 19.7022L25.2025 20.9677L31.6976 32.3183C31.2295 32.7964 31.1138 33.5437 31.4626 34.153C31.8835 34.8885 32.8209 35.1437 33.5564 34.7228C34.2919 34.3019 34.5471 33.3645 34.1262 32.629C33.7776 32.0197 33.0745 31.7405 32.4251 31.9021L25.93 20.5515L25.2058 19.286L25.1851 19.2495C25.2221 19.2282 25.2602 19.2106 25.2991 19.1968C25.4143 19.1542 25.535 19.1423 25.6518 19.157C25.6772 19.1509 25.7038 19.147 25.7311 19.147H42.6406C42.8256 19.147 42.9759 19.2973 42.9759 19.4823C42.9759 19.6674 42.8256 19.8176 42.6406 19.8176V19.8174Z" fill="white"/>
</svg>
