<svg width="20" height="20" viewBox="0 0 20 20" fill="none" xmlns="http://www.w3.org/2000/svg">
<path d="M3.75211 6.65828L10.0002 12.7481L16.2482 6.65828C16.3598 6.54959 16.5094 6.48877 16.6652 6.48877C16.821 6.48877 16.9706 6.54959 17.0822 6.65828C17.1365 6.71107 17.1797 6.77422 17.2092 6.844C17.2387 6.91378 17.2539 6.98877 17.2539 7.06453C17.2539 7.14029 17.2387 7.21527 17.2092 7.28505C17.1797 7.35483 17.1365 7.41799 17.0822 7.47078L10.4357 13.9493C10.319 14.0626 10.1628 14.126 10.0002 14.126C9.8375 14.126 9.68126 14.0626 9.56461 13.9493L2.91812 7.47078C2.86349 7.41796 2.82004 7.35469 2.79036 7.28472C2.76069 7.21476 2.7454 7.13955 2.7454 7.06355C2.7454 6.98756 2.76069 6.91234 2.79036 6.84238C2.82004 6.77242 2.86349 6.70915 2.91812 6.65633C3.02972 6.54764 3.17934 6.48682 3.33512 6.48682C3.49089 6.48682 3.64051 6.54764 3.75211 6.65633L3.75211 6.65828Z" fill="#666666"/>
</svg>
