<svg width="20" height="20" viewBox="0 0 20 20" fill="none" xmlns="http://www.w3.org/2000/svg">
<path d="M6.47678 2.0325L7.37428 1.74583C8.21428 1.4775 9.11261 1.91167 9.47261 2.76L10.1893 4.45C10.5018 5.18583 10.3284 6.05167 9.76095 6.59L8.18345 8.08833C8.28067 8.985 8.58178 9.8675 9.08678 10.7358C9.56701 11.5757 10.2105 12.311 10.9793 12.8983L12.8759 12.265C13.5943 12.0258 14.3768 12.3017 14.8176 12.9492L15.8443 14.4575C16.3576 15.2108 16.2651 16.2492 15.6293 16.8875L14.9476 17.5717C14.2693 18.2525 13.3009 18.5 12.4043 18.22C10.2887 17.56 8.34345 15.6008 6.56845 12.3425C4.79123 9.07861 4.164 6.30972 4.68678 4.03583C4.90678 3.07917 5.58845 2.31667 6.47845 2.0325" fill="#666666"/>
</svg>
