<svg width="100" height="24" viewBox="0 0 100 24" fill="none" xmlns="http://www.w3.org/2000/svg">
<g clip-path="url(#clip0_1254_7096)">
<path d="M30.0724 1.01729L0.441406 9.17665V8.24445L30.0724 0.0859375V1.01729Z" fill="white"/>
<path d="M17.8071 7.57091C19.3591 7.57091 21.3182 6.54275 20.996 4.6929L30.0709 2.19531V3.12752L22.0304 5.34322C21.9902 7.1665 19.7492 8.54596 17.9767 8.54596C17.4166 8.58348 16.8557 8.48548 16.3454 8.26094C15.835 8.0364 15.3915 7.6925 15.0555 7.26075L0.445312 11.2869V10.3547L15.6446 6.17004C15.7852 6.60626 16.0769 6.98321 16.4714 7.23833C16.8659 7.49345 17.3394 7.61141 17.8133 7.57263" fill="white"/>
<path d="M17.8946 10.3262C21.0602 10.3262 23.785 7.92117 23.6958 6.05418L30.0763 4.29688V5.22822L24.4232 6.78161C24.1858 8.80025 21.1914 11.2798 18.0275 11.2798C17.2582 11.3371 16.4854 11.2229 15.7697 10.946C15.0539 10.6691 14.4145 10.237 13.9015 9.68362L0.445312 13.3893V12.4571L14.0586 8.70686C14.5141 9.25472 15.1012 9.68828 15.7697 9.97034C16.4381 10.2524 17.1679 10.3745 17.8963 10.3262" fill="white"/>
<path d="M18.2614 12.7196C19.8522 12.757 21.4108 12.2855 22.6919 11.3793C23.973 10.4732 24.9039 9.1838 25.338 7.7141L30.0763 6.40918V7.34138L25.695 8.54091C25.2586 10.9006 22.2874 13.5412 18.2551 13.5412C17.425 13.5671 16.5983 13.4283 15.8266 13.1334C15.0549 12.8385 14.3549 12.394 13.7703 11.8276L0.445312 15.4965V14.5625L13.6846 10.9108C14.2505 11.5288 14.9576 12.0128 15.7506 12.325C16.5436 12.6371 17.4011 12.7689 18.256 12.7101" fill="white"/>
<path d="M18.7823 14.7318C20.4217 14.799 22.0362 14.3288 23.3604 13.3984C24.6845 12.4681 25.6396 11.1329 26.0686 9.61236L30.0724 8.50879V9.44099L26.2114 10.5051C25.7371 11.9729 24.7748 13.251 23.472 14.1438C22.1691 15.0367 20.5974 15.4951 18.9973 15.4489C18.1587 15.48 17.3225 15.3438 16.5415 15.0488C15.7605 14.7539 15.0517 14.3066 14.4599 13.7353L0.441406 17.5961V16.663L14.1011 12.9085C14.6821 13.5384 15.4069 14.0309 16.219 14.3474C17.031 14.664 17.9083 14.7961 18.7823 14.7335" fill="white"/>
<path d="M15.193 14.7109C15.3705 14.9943 15.5951 15.2478 15.8579 15.4615L0.445312 19.7053V18.7722L15.193 14.7109Z" fill="white"/>
<path d="M26.147 11.7016L30.0731 10.6221V11.5543L25.9141 12.699C26.019 12.3729 26.0969 12.0395 26.147 11.7016Z" fill="white"/>
<path d="M0.445312 23.9197V22.9866L30.0763 14.8281V15.7603L0.445312 23.9197Z" fill="white"/>
<path d="M25.8208 13.1708C25.6979 13.4722 25.5404 13.7595 25.3514 14.0276L30.0763 12.7227V13.6549L24.3009 15.2451C23.1293 16.3478 21.5496 16.9589 19.9089 16.9441C19.4839 16.9415 19.0605 16.8947 18.646 16.8045L0.445312 21.8134V20.882L17.135 16.2793C16.8771 16.1545 16.6305 16.0092 16.3978 15.8449C16.3354 15.7994 16.388 15.7592 16.446 15.7892C17.2722 16.1575 18.1734 16.3442 19.0843 16.3358C20.3862 16.4013 21.6836 16.1411 22.8494 15.5806C24.0151 15.02 25.0092 14.1784 25.7343 13.1382C25.7762 13.0645 25.8396 13.1022 25.819 13.1639" fill="white"/>
<path d="M95.777 21.3609C95.8993 21.0361 95.951 20.7542 95.4887 20.1134L90.4336 13.0875L85.067 20.1828C84.9129 20.3361 84.8107 20.5305 84.7736 20.7405C84.7364 20.9506 84.7663 21.1665 84.8591 21.36H81.0508C81.5719 20.984 82.0141 20.5165 82.3538 19.9823L89.1243 11.2685L83.4329 3.36279C83.1635 2.87635 82.7748 2.46022 82.3003 2.15041H86.2273C86.1617 2.34904 86.1512 2.56064 86.1967 2.76437C86.2423 2.96809 86.3423 3.15691 86.487 3.31224L90.7112 9.24819L95.3156 3.34308C95.4778 3.1903 95.5918 2.99674 95.6447 2.78459C95.6976 2.57243 95.6872 2.35027 95.6146 2.14355L98.9311 2.14355C98.5079 2.47729 98.1459 2.87665 97.8601 3.32509L91.9892 11.0363L98.5607 20.2419C98.816 20.6697 99.153 21.0476 99.5541 21.3557L95.777 21.3609Z" fill="white"/>
<path d="M72.7572 19.7432C73.1922 20.3762 73.7563 20.9181 74.4155 21.336V21.3643H70.9249C70.094 20.5932 65.8974 14.6872 63.668 11.9883C62.8585 11.0029 62.5265 10.4863 62.1686 10.3372V19.7835C62.1686 20.7534 62.1766 20.8631 62.5381 21.3531H59.2617C59.5825 20.8918 59.71 20.3312 59.6187 19.7835V4.02253C59.6187 2.60109 59.6143 2.53169 59.2805 2.14355H64.6506C68.9739 2.14355 70.8794 3.95656 70.8794 6.54925C70.8794 6.56896 70.8794 6.58867 70.8794 6.60837C70.8065 7.87962 70.2111 9.07114 69.2237 9.92116C68.2364 10.7712 66.9379 11.2102 65.6136 11.1417V11.2163C66.1646 11.6329 66.6466 12.1271 67.0434 12.6823L72.7554 19.7415M63.2128 10.2224C66.4883 10.2224 68.2733 8.52676 68.2733 6.63236C68.2733 4.96416 66.7382 3.41163 63.8393 3.41163C63.2748 3.38591 62.7097 3.45284 62.1686 3.60955V10.159C62.5155 10.1978 62.8644 10.2172 63.2137 10.2172" fill="white"/>
<path d="M79.385 21.3514L76.1211 21.3531C76.4436 20.8925 76.5733 20.3319 76.4843 19.7835V4.02253C76.4843 2.60109 76.4781 2.53169 76.1416 2.14355H79.3653C79.0324 2.5334 79.0244 2.6028 79.0244 4.02253V19.7826C78.932 20.3304 79.0596 20.8913 79.3814 21.3523L79.385 21.3514Z" fill="white"/>
<path d="M47.5499 1.95662C48.8718 1.97305 50.1774 2.23933 51.3921 2.74024C52.6069 3.24115 53.7069 3.96688 54.6295 4.87599C55.552 5.7851 56.2789 6.85976 56.7688 8.03862C57.2586 9.21747 57.5017 10.4774 57.4843 11.7465C57.4843 11.827 57.4843 11.9076 57.4843 11.9881C57.4509 14.5724 56.3495 17.0381 54.4224 18.8428C52.4953 20.6475 49.9004 21.6434 47.2085 21.6113C44.5165 21.5793 41.9481 20.522 40.0682 18.6719C38.1884 16.8219 37.151 14.3308 37.1844 11.7465C37.1844 11.6608 37.1844 11.5751 37.1844 11.4937C37.1986 10.2276 37.4725 8.9766 37.9903 7.8121C38.5082 6.6476 39.2599 5.59242 40.2025 4.70681C41.1451 3.82121 42.2602 3.12252 43.4841 2.65064C44.7081 2.17876 46.0168 1.94293 47.3357 1.95662C47.4071 1.95662 47.4785 1.95662 47.5499 1.95662ZM54.7514 11.7448C54.7514 7.4496 51.8651 3.48516 47.3365 3.48516C42.808 3.48516 39.8467 7.4496 39.8467 11.7448C39.8467 16.0399 42.8482 20.0044 47.3365 20.0044C51.7018 20.0044 54.7514 16.0399 54.7514 11.7448Z" fill="white"/>
</g>
<defs>
<clipPath id="clip0_1254_7096">
<rect width="100" height="24" fill="white"/>
</clipPath>
</defs>
</svg>
