<svg width="20" height="20" viewBox="0 0 20 20" fill="none" xmlns="http://www.w3.org/2000/svg">
<path d="M10.0004 0.900391C4.97719 0.900391 0.900391 4.97719 0.900391 10.0004C0.900391 15.0236 4.97719 19.1004 10.0004 19.1004C15.0236 19.1004 19.1004 15.0236 19.1004 10.0004C19.1004 4.97719 15.0236 0.900391 10.0004 0.900391ZM9.09039 5.45039H10.9104V10.9104H9.09039V5.45039ZM10.0004 14.5504C9.37249 14.5504 8.86289 14.0408 8.86289 13.4129C8.86289 12.785 9.37249 12.2754 10.0004 12.2754C10.6283 12.2754 11.1379 12.785 11.1379 13.4129C11.1379 14.0408 10.6283 14.5504 10.0004 14.5504Z" fill="#999999"/>
</svg>
